<mxfile host="app.diagrams.net" modified="2023-02-24T13:30:11.817Z" agent="5.0 (Windows NT 10.0; Win64; x64) AppleWebKit/537.36 (KHTML, like Gecko) Chrome/110.0.0.0 Safari/537.36" etag="vJ2u-8AOVhQ-Gm1Jy1LA" version="20.8.23" type="github">
  <diagram name="Page-1" id="Ohr7rfkL9KGcoza_FenF">
    <mxGraphModel dx="880" dy="452" grid="1" gridSize="10" guides="1" tooltips="1" connect="1" arrows="1" fold="1" page="1" pageScale="1" pageWidth="827" pageHeight="1169" math="0" shadow="0">
      <root>
        <mxCell id="0" />
        <mxCell id="1" parent="0" />
        <mxCell id="FbdB9yheL0EueXW62vN_-1" value="" style="whiteSpace=wrap;html=1;aspect=fixed;" vertex="1" parent="1">
          <mxGeometry x="279" y="83" width="557" height="557" as="geometry" />
        </mxCell>
        <mxCell id="FbdB9yheL0EueXW62vN_-21" style="edgeStyle=orthogonalEdgeStyle;rounded=0;orthogonalLoop=1;jettySize=auto;html=1;exitX=1;exitY=0.3333333333333333;exitDx=0;exitDy=0;exitPerimeter=0;entryX=0;entryY=0.5;entryDx=0;entryDy=0;" edge="1" parent="1" source="FbdB9yheL0EueXW62vN_-2" target="FbdB9yheL0EueXW62vN_-10">
          <mxGeometry relative="1" as="geometry" />
        </mxCell>
        <mxCell id="FbdB9yheL0EueXW62vN_-2" value="Actor" style="shape=umlActor;verticalLabelPosition=bottom;verticalAlign=top;html=1;outlineConnect=0;" vertex="1" parent="1">
          <mxGeometry x="210" y="120" width="30" height="60" as="geometry" />
        </mxCell>
        <mxCell id="FbdB9yheL0EueXW62vN_-20" style="edgeStyle=orthogonalEdgeStyle;rounded=0;orthogonalLoop=1;jettySize=auto;html=1;exitX=1;exitY=0.3333333333333333;exitDx=0;exitDy=0;exitPerimeter=0;entryX=0;entryY=0.5;entryDx=0;entryDy=0;" edge="1" parent="1" source="FbdB9yheL0EueXW62vN_-3" target="FbdB9yheL0EueXW62vN_-12">
          <mxGeometry relative="1" as="geometry" />
        </mxCell>
        <mxCell id="FbdB9yheL0EueXW62vN_-25" style="edgeStyle=orthogonalEdgeStyle;rounded=0;orthogonalLoop=1;jettySize=auto;html=1;exitX=1;exitY=0.3333333333333333;exitDx=0;exitDy=0;exitPerimeter=0;entryX=0;entryY=0.5;entryDx=0;entryDy=0;" edge="1" parent="1" source="FbdB9yheL0EueXW62vN_-3" target="FbdB9yheL0EueXW62vN_-22">
          <mxGeometry relative="1" as="geometry" />
        </mxCell>
        <mxCell id="FbdB9yheL0EueXW62vN_-3" value="Actor" style="shape=umlActor;verticalLabelPosition=bottom;verticalAlign=top;html=1;outlineConnect=0;" vertex="1" parent="1">
          <mxGeometry x="210" y="280" width="30" height="60" as="geometry" />
        </mxCell>
        <mxCell id="FbdB9yheL0EueXW62vN_-10" value="" style="ellipse;whiteSpace=wrap;html=1;" vertex="1" parent="1">
          <mxGeometry x="354" y="130" width="120" height="80" as="geometry" />
        </mxCell>
        <mxCell id="FbdB9yheL0EueXW62vN_-11" value="GÃ©rer les compte&amp;nbsp;" style="text;html=1;strokeColor=none;fillColor=none;align=center;verticalAlign=middle;whiteSpace=wrap;rounded=0;" vertex="1" parent="1">
          <mxGeometry x="384" y="150" width="60" height="30" as="geometry" />
        </mxCell>
        <mxCell id="FbdB9yheL0EueXW62vN_-12" value="" style="ellipse;whiteSpace=wrap;html=1;" vertex="1" parent="1">
          <mxGeometry x="354" y="280" width="120" height="80" as="geometry" />
        </mxCell>
        <mxCell id="FbdB9yheL0EueXW62vN_-17" style="edgeStyle=orthogonalEdgeStyle;rounded=0;orthogonalLoop=1;jettySize=auto;html=1;exitX=0;exitY=0.5;exitDx=0;exitDy=0;" edge="1" parent="1" source="FbdB9yheL0EueXW62vN_-14" target="FbdB9yheL0EueXW62vN_-12">
          <mxGeometry relative="1" as="geometry" />
        </mxCell>
        <mxCell id="FbdB9yheL0EueXW62vN_-14" value="" style="ellipse;whiteSpace=wrap;html=1;" vertex="1" parent="1">
          <mxGeometry x="520" y="200" width="120" height="80" as="geometry" />
        </mxCell>
        <mxCell id="FbdB9yheL0EueXW62vN_-16" value="Authentifier" style="text;html=1;strokeColor=none;fillColor=none;align=center;verticalAlign=middle;whiteSpace=wrap;rounded=0;" vertex="1" parent="1">
          <mxGeometry x="384" y="305" width="60" height="30" as="geometry" />
        </mxCell>
        <mxCell id="FbdB9yheL0EueXW62vN_-18" value="include" style="text;html=1;strokeColor=none;fillColor=none;align=center;verticalAlign=middle;whiteSpace=wrap;rounded=0;rotation=-90;" vertex="1" parent="1">
          <mxGeometry x="450" y="255" width="60" height="30" as="geometry" />
        </mxCell>
        <mxCell id="FbdB9yheL0EueXW62vN_-22" value="" style="ellipse;whiteSpace=wrap;html=1;" vertex="1" parent="1">
          <mxGeometry x="354" y="370" width="120" height="80" as="geometry" />
        </mxCell>
        <mxCell id="FbdB9yheL0EueXW62vN_-24" value="commander et consulter l services" style="text;html=1;strokeColor=none;fillColor=none;align=center;verticalAlign=middle;whiteSpace=wrap;rounded=0;" vertex="1" parent="1">
          <mxGeometry x="384" y="395" width="60" height="30" as="geometry" />
        </mxCell>
        <mxCell id="FbdB9yheL0EueXW62vN_-27" value="S&#39;inscrire" style="text;html=1;strokeColor=none;fillColor=none;align=center;verticalAlign=middle;whiteSpace=wrap;rounded=0;" vertex="1" parent="1">
          <mxGeometry x="550" y="225" width="60" height="30" as="geometry" />
        </mxCell>
      </root>
    </mxGraphModel>
  </diagram>
</mxfile>
